<?xml version="1.0" encoding="UTF-8" standalone="no"?>
<!DOCTYPE svg PUBLIC "-//W3C//DTD SVG 1.1//EN" "http://www.w3.org/Graphics/SVG/1.1/DTD/svg11.dtd">
<svg width="100%" height="100%" viewBox="0 0 128 128" version="1.1" xmlns="http://www.w3.org/2000/svg" xmlns:xlink="http://www.w3.org/1999/xlink" xml:space="preserve" xmlns:serif="http://www.serif.com/" style="fill-rule:evenodd;clip-rule:evenodd;stroke-linejoin:round;stroke-miterlimit:2;">
    <g transform="matrix(1.28,0,0,1.28,1.22902e-13,0)">
        <g id="small-Logo" serif:id="small/Logo">
            <g id="Group-4">
                <g id="Group">
                    <path id="Path" d="M49.999,0C34.371,0 15.519,3.586 0,11.478C0,28.522 -0.214,70.986 49.999,100C100.213,70.986 100,28.522 100,11.478C84.48,3.586 65.628,0 49.999,0Z" style="fill:rgb(104,188,113);"/>
                    <path id="Combined-Shape" d="M50,0L50,99.999C-0.214,70.986 0,28.522 0,11.478C15.519,3.586 34.371,0 49.999,0L50,0Z" style="fill:rgb(103,178,121);"/>
                </g>
                <path id="Fill-11" d="M49.559,64.286L78.571,25.844C76.445,24.169 74.581,25.351 73.554,26.267L73.517,26.27L49.326,51.009L40.212,40.226C35.864,35.287 29.952,39.054 28.571,40.05L49.559,64.286" style="fill:white;"/>
            </g>
        </g>
    </g>
</svg>
