<?xml version="1.0" encoding="UTF-8" standalone="no"?>
<!DOCTYPE svg PUBLIC "-//W3C//DTD SVG 1.1//EN" "http://www.w3.org/Graphics/SVG/1.1/DTD/svg11.dtd">
<svg width="100%" height="100%" viewBox="0 0 128 128" version="1.1" xmlns="http://www.w3.org/2000/svg" xmlns:xlink="http://www.w3.org/1999/xlink" xml:space="preserve" xmlns:serif="http://www.serif.com/" style="fill-rule:evenodd;clip-rule:evenodd;">
    <g transform="matrix(0.303795,0,0,0.303795,-33.2139,-33.2143)">
        <path d="M490.4,235.64C544.09,358.38 544.09,435.34 490.4,466.5C409.85,513.24 199.96,527.49 139.54,455.64C99.26,407.74 99.26,334.4 139.54,235.64C180.5,168.18 238.71,134.45 314.17,134.45C389.64,134.45 448.38,168.18 490.4,235.64Z" style="fill:url(#_Linear1);fill-rule:nonzero;"/>
        <path d="M490.4,235.64C544.09,358.38 544.09,435.34 490.4,466.5C409.85,513.24 199.96,527.49 139.54,455.64C99.26,407.74 99.26,334.4 139.54,235.64C180.5,168.18 238.71,134.45 314.17,134.45C389.64,134.45 448.38,168.18 490.4,235.64Z" style="fill:none;fill-rule:nonzero;stroke:rgb(242,242,242);stroke-opacity:0.51;stroke-width:200px;"/>
    </g>
    <defs>
        <linearGradient id="_Linear1" x1="0" y1="0" x2="1" y2="0" gradientUnits="userSpaceOnUse" gradientTransform="matrix(204.07,195.34,-195.34,204.07,259.78,261.15)"><stop offset="0" style="stop-color:rgb(92,221,139);stop-opacity:1"/><stop offset="1" style="stop-color:rgb(134,230,169);stop-opacity:1"/></linearGradient>
    </defs>
</svg>
