<?xml version="1.0" encoding="UTF-8" standalone="no"?>
<!DOCTYPE svg PUBLIC "-//W3C//DTD SVG 1.1//EN" "http://www.w3.org/Graphics/SVG/1.1/DTD/svg11.dtd">
<svg width="100%" height="100%" viewBox="0 0 128 128" version="1.1" xmlns="http://www.w3.org/2000/svg" xmlns:xlink="http://www.w3.org/1999/xlink" xml:space="preserve" xmlns:serif="http://www.serif.com/" style="fill-rule:evenodd;clip-rule:evenodd;stroke-linejoin:round;stroke-miterlimit:2;">
    <g transform="matrix(0.561404,0,0,0.561404,0,30.3158)">
        <path d="M204,48C192.817,48 183.42,40.351 180.756,30L153.248,30C147.382,30 142.376,34.241 141.412,40.027L140.425,45.946C139.489,51.565 136.646,56.455 132.626,60C136.646,63.545 139.489,68.435 140.425,74.054L141.412,79.973C142.376,85.759 147.382,90 153.248,90L156.756,90C159.42,79.649 168.817,72 180,72C193.255,72 204,82.745 204,96C204,109.255 193.255,120 180,120C168.817,120 159.42,112.351 156.756,102L153.248,102C141.516,102 131.504,93.518 129.575,81.946L128.588,76.027C127.624,70.241 122.618,66 116.752,66L107.244,66C104.58,76.351 95.183,84 84,84C72.817,84 63.42,76.351 60.756,66L47.244,66C44.58,76.351 35.183,84 24,84C10.745,84 0,73.255 0,60C0,46.745 10.745,36 24,36C35.183,36 44.58,43.649 47.244,54L60.756,54C63.42,43.649 72.817,36 84,36C95.183,36 104.58,43.649 107.244,54L116.752,54C122.618,54 127.624,49.759 128.588,43.973L129.575,38.054C131.504,26.482 141.516,18 153.248,18L180.756,18C183.42,7.649 192.817,0 204,0C217.255,0 228,10.745 228,24C228,37.255 217.255,48 204,48ZM204,36C210.627,36 216,30.627 216,24C216,17.373 210.627,12 204,12C197.373,12 192,17.373 192,24C192,30.627 197.373,36 204,36ZM24,72C30.627,72 36,66.627 36,60C36,53.373 30.627,48 24,48C17.373,48 12,53.373 12,60C12,66.627 17.373,72 24,72ZM96,60C96,66.627 90.627,72 84,72C77.373,72 72,66.627 72,60C72,53.373 77.373,48 84,48C90.627,48 96,53.373 96,60ZM192,96C192,102.627 186.627,108 180,108C173.373,108 168,102.627 168,96C168,89.373 173.373,84 180,84C186.627,84 192,89.373 192,96Z" style="fill:rgb(234,75,113);"/>
    </g>
</svg>
