<?xml version="1.0" encoding="UTF-8" standalone="no"?>
<!DOCTYPE svg PUBLIC "-//W3C//DTD SVG 1.1//EN" "http://www.w3.org/Graphics/SVG/1.1/DTD/svg11.dtd">
<svg width="100%" height="100%" viewBox="0 0 128 128" version="1.1" xmlns="http://www.w3.org/2000/svg" xmlns:xlink="http://www.w3.org/1999/xlink" xml:space="preserve" xmlns:serif="http://www.serif.com/" style="fill-rule:evenodd;clip-rule:evenodd;stroke-linejoin:round;stroke-miterlimit:2;">
    <g transform="matrix(5.3046,0,0,5.3046,17.1073,0)">
        <rect x="5.52" y="5.3" width="0.38" height="1.91" style="fill:rgb(11,165,236);"/>
        <rect x="7.14" y="5.3" width="0.38" height="1.91" style="fill:rgb(11,165,236);"/>
        <path d="M9.74,1.67L9.35,1.02L2.9,4.65L3.29,5.3L9.74,1.67Z" style="fill:rgb(11,165,236);"/>
        <path d="M9.7,1.67L10.09,1.02L16.54,4.66L16.15,5.31L9.7,1.67Z" style="fill:rgb(11,165,236);"/>
        <rect x="0" y="4.56" width="17.68" height="0.75" style="fill:rgb(11,165,236);"/>
        <path d="M11.68,15.98L11.68,4.79L12.45,4.79L12.45,16.52C12.24,16.29 11.98,16.12 11.68,15.98Z" style="fill:rgb(11,165,236);"/>
        <path d="M9.36,15.78L9.36,0L10.13,0L10.13,15.87C9.91,15.77 9.38,15.78 9.36,15.78Z" style="fill:rgb(11,165,236);"/>
        <path d="M2.03,17.35C1.09,16.67 0.46,15.58 0.46,14.35C0.46,13.7 0.64,13.05 0.97,12.49L7.58,12.49C7.92,13.05 8.09,13.7 8.09,14.35C8.09,14.92 8.01,15.45 7.78,15.93C7.28,15.46 6.54,15.26 5.8,15.26C4.48,15.26 3.35,16.06 3.05,17.26C2.95,17.26 2.88,17.24 2.78,17.24C2.53,17.24 2.28,17.29 2.03,17.35Z" style="fill:rgb(11,165,236);"/>
        <rect x="3.27" y="8.05" width="2" height="1.96" style="fill:rgb(11,165,236);"/>
        <rect x="1.02" y="8.05" width="2" height="1.96" style="fill:rgb(11,165,236);"/>
        <rect x="1.02" y="10.24" width="2" height="1.96" style="fill:rgb(11,165,236);"/>
        <rect x="3.27" y="10.24" width="2" height="1.96" style="fill:rgb(11,165,236);"/>
        <rect x="5.52" y="10.24" width="2" height="1.96" style="fill:rgb(11,165,236);"/>
        <rect x="5.52" y="7" width="2" height="1.96" style="fill:rgb(11,165,236);"/>
        <path d="M3.38,17.65C3.65,16.52 4.7,15.67 5.95,15.67C6.75,15.67 7.47,16.02 7.96,16.57C8.38,16.28 8.89,16.12 9.45,16.12C10.9,16.12 12.08,17.27 12.08,18.69C12.08,18.98 12.03,19.26 11.94,19.53C12.26,19.95 12.46,20.49 12.46,21.06C12.46,22.48 11.28,23.63 9.83,23.63C9.19,23.63 8.6,23.41 8.15,23.04C7.67,23.69 6.89,24.13 6,24.13C4.98,24.13 4.09,23.56 3.65,22.73C3.47,22.77 3.29,22.79 3.1,22.79C1.65,22.79 0.46,21.64 0.46,20.22C0.46,18.8 1.64,17.65 3.1,17.65L3.38,17.65Z" style="fill:rgb(11,165,236);"/>
    </g>
</svg>
