<?xml version="1.0" encoding="UTF-8" standalone="no"?>
<!DOCTYPE svg PUBLIC "-//W3C//DTD SVG 1.1//EN" "http://www.w3.org/Graphics/SVG/1.1/DTD/svg11.dtd">
<svg width="100%" height="100%" viewBox="0 0 128 128" version="1.1" xmlns="http://www.w3.org/2000/svg" xmlns:xlink="http://www.w3.org/1999/xlink" xml:space="preserve" xmlns:serif="http://www.serif.com/" style="fill-rule:evenodd;clip-rule:evenodd;stroke-linejoin:round;stroke-miterlimit:2;">
    <g transform="matrix(0.147178,-1.30143e-34,0,-0.147178,-87.2312,210.537)">
        <g id="g16">
            <g id="g40" transform="matrix(1,0,0,1,1428.21,1041.79)">
                <path id="path42" d="M24.737,-46.165C24.737,-55.151 24.434,-64.137 23.829,-73.074C21.404,-112.354 13.732,-150.168 1.464,-185.863C-53.721,-346.715 -201.647,-464.501 -378.505,-475.356C-387.39,-476.011 -396.378,-476.266 -405.416,-476.266C-414.452,-476.266 -423.386,-476.011 -432.322,-475.356C-648.457,-462.078 -821.329,-289.211 -834.605,-73.074C-835.26,-64.137 -835.515,-55.151 -835.515,-46.165C-835.515,-37.127 -835.259,-28.141 -834.605,-19.255C-821.329,196.829 -648.457,369.8 -432.322,383.078C-423.386,383.683 -414.452,383.988 -405.416,383.988C-396.378,383.988 -387.39,383.683 -378.505,383.078L-378.505,267.461L-432.322,267.461L-432.322,313.96C-610.091,300.883 -752.41,158.46 -765.537,-19.255L-723.987,-19.255L-723.987,-73.074L-765.537,-73.074C-752.41,-250.84 -610.091,-393.164 -432.322,-406.291L-432.322,-358.882L-378.505,-358.882L-378.505,-406.291C-247.186,-396.596 -135.105,-316.322 -80.275,-203.332C-60.89,-163.448 -48.673,-119.471 -45.288,-73.074L-45.39,-73.074L-20.247,-19.255L23.829,-19.255C24.434,-28.141 24.737,-37.127 24.737,-46.165" style="fill:rgb(47,133,90);fill-rule:nonzero;"/>
            </g>
            <g id="g44" transform="matrix(1,0,0,1,1429.44,1222.4)">
                <path id="path46" d="M32.947,-89.08L-15.533,-65.685L-28.762,-93.192L-56.029,-149.903L-163.716,-373.429L-163.878,-373.671L-270.118,-373.671L-270.197,-373.509L-270.118,-373.267L-228.25,-286.389L-217.522,-264.125L-216.958,-262.917L-162.508,-149.903L-141.616,-106.665L-135.163,-93.192L-101.927,-24.064L-118.302,-16.236L-145.487,-3.088L-3.837,62.816L32.947,-89.08Z" style="fill:rgb(47,133,90);fill-rule:nonzero;"/>
            </g>
            <g id="g48" transform="matrix(1,0,0,1,732.941,1023.91)">
                <path id="path50" d="M185.679,-54.674L185.679,-54.726L132.474,-165.283L35.627,35.871L8.369,92.542L114.777,92.542L142.087,35.871L185.679,-54.674Z" style="fill:rgb(47,133,90);fill-rule:nonzero;"/>
            </g>
            <g id="g52" transform="matrix(1,0,0,1,909.708,1041.41)">
                <path id="path54" d="M147.932,-46.076L77.345,-192.661L77.345,-192.715L-29.167,-192.715L-29.167,-192.661L24.088,-82.104L78.656,31.131L94.677,64.479L110.747,31.131L137.009,-23.386L147.932,-46.076Z" style="fill:rgb(47,133,90);fill-rule:nonzero;"/>
            </g>
            <g id="g56" transform="matrix(1,0,0,1,1087.84,1020)">
                <path id="path58" d="M109.86,-53.744L99.132,-76.008L57.184,-162.724L57.104,-162.966L-14.607,-13.975L-40.503,39.749L-67.766,96.457L37.421,96.457L109.86,-53.744Z" style="fill:rgb(47,133,90);fill-rule:nonzero;"/>
            </g>
        </g>
    </g>
</svg>
